<?xml version="1.0" encoding="UTF-8" standalone="no"?>
<!DOCTYPE svg PUBLIC "-//W3C//DTD SVG 1.1//EN" "http://www.w3.org/Graphics/SVG/1.1/DTD/svg11.dtd">
<svg width="100%" height="100%" viewBox="0 0 3544 1772" version="1.1" xmlns="http://www.w3.org/2000/svg" xmlns:xlink="http://www.w3.org/1999/xlink" xml:space="preserve" xmlns:serif="http://www.serif.com/" style="fill-rule:evenodd;clip-rule:evenodd;stroke-linejoin:round;stroke-miterlimit:2;">
    <g transform="matrix(10.0321,0,0,10.0321,-14487,-6796.03)">
        <g transform="matrix(50,0,0,50,1572.21,779.536)">
            <path d="M0.309,-0.099L0.309,0.005L0.243,0.007C0.177,0.01 0.132,-0.002 0.108,-0.027C0.092,-0.043 0.084,-0.067 0.084,-0.101L0.084,-0.428L0.01,-0.428L0.01,-0.527L0.084,-0.527L0.084,-0.676L0.222,-0.676L0.222,-0.527L0.309,-0.527L0.309,-0.428L0.222,-0.428L0.222,-0.147C0.222,-0.125 0.225,-0.112 0.23,-0.106C0.236,-0.101 0.253,-0.098 0.281,-0.098C0.285,-0.098 0.29,-0.098 0.295,-0.098C0.299,-0.099 0.304,-0.099 0.309,-0.099Z" style="fill:rgb(29,35,38);fill-rule:nonzero;"/>
        </g>
        <g transform="matrix(50,0,0,50,1588.86,779.536)">
            <path d="M0.546,-0.313L0.546,-0L0.404,-0L0.404,-0.324C0.404,-0.352 0.399,-0.375 0.389,-0.393C0.376,-0.418 0.352,-0.43 0.317,-0.43C0.28,-0.43 0.252,-0.418 0.233,-0.393C0.214,-0.369 0.205,-0.334 0.205,-0.288L0.205,-0L0.066,-0L0.066,-0.717L0.205,-0.717L0.205,-0.463C0.225,-0.494 0.248,-0.515 0.275,-0.528C0.301,-0.54 0.329,-0.546 0.358,-0.546C0.391,-0.546 0.421,-0.54 0.448,-0.529C0.475,-0.517 0.497,-0.5 0.514,-0.477C0.529,-0.457 0.538,-0.436 0.541,-0.415C0.544,-0.394 0.546,-0.36 0.546,-0.313Z" style="fill:rgb(29,35,38);fill-rule:nonzero;"/>
        </g>
        <g transform="matrix(50,0,0,50,1619.4,779.536)">
            <path d="M0.085,-0.475C0.122,-0.521 0.185,-0.545 0.274,-0.545C0.333,-0.545 0.384,-0.533 0.43,-0.51C0.475,-0.487 0.498,-0.444 0.498,-0.379L0.498,-0.135C0.498,-0.118 0.498,-0.098 0.499,-0.074C0.5,-0.056 0.502,-0.043 0.507,-0.037C0.511,-0.03 0.518,-0.025 0.527,-0.021L0.527,-0L0.376,-0C0.372,-0.011 0.369,-0.021 0.367,-0.03C0.366,-0.04 0.364,-0.05 0.363,-0.063C0.344,-0.042 0.322,-0.024 0.297,-0.009C0.267,0.008 0.233,0.017 0.195,0.017C0.147,0.017 0.107,0.003 0.076,-0.025C0.045,-0.052 0.029,-0.091 0.029,-0.142C0.029,-0.207 0.054,-0.254 0.104,-0.284C0.132,-0.3 0.173,-0.311 0.227,-0.318L0.274,-0.324C0.3,-0.327 0.318,-0.331 0.329,-0.336C0.349,-0.344 0.359,-0.358 0.359,-0.375C0.359,-0.397 0.351,-0.412 0.336,-0.421C0.321,-0.429 0.299,-0.433 0.27,-0.433C0.237,-0.433 0.213,-0.425 0.2,-0.409C0.19,-0.397 0.183,-0.38 0.18,-0.36L0.046,-0.36C0.049,-0.406 0.062,-0.445 0.085,-0.475ZM0.188,-0.101C0.201,-0.09 0.217,-0.084 0.236,-0.084C0.266,-0.084 0.294,-0.093 0.319,-0.111C0.344,-0.128 0.357,-0.16 0.358,-0.207L0.358,-0.259C0.35,-0.253 0.341,-0.249 0.332,-0.245C0.323,-0.242 0.311,-0.239 0.295,-0.236L0.264,-0.23C0.234,-0.225 0.213,-0.218 0.201,-0.211C0.179,-0.198 0.168,-0.179 0.168,-0.152C0.168,-0.128 0.175,-0.111 0.188,-0.101Z" style="fill:rgb(29,35,38);fill-rule:nonzero;"/>
        </g>
        <g transform="matrix(50,0,0,50,1647.21,779.536)">
            <path d="M0.309,-0.099L0.309,0.005L0.243,0.007C0.177,0.01 0.132,-0.002 0.108,-0.027C0.092,-0.043 0.084,-0.067 0.084,-0.101L0.084,-0.428L0.01,-0.428L0.01,-0.527L0.084,-0.527L0.084,-0.676L0.222,-0.676L0.222,-0.527L0.309,-0.527L0.309,-0.428L0.222,-0.428L0.222,-0.147C0.222,-0.125 0.225,-0.112 0.23,-0.106C0.236,-0.101 0.253,-0.098 0.281,-0.098C0.285,-0.098 0.29,-0.098 0.295,-0.098C0.299,-0.099 0.304,-0.099 0.309,-0.099Z" style="fill:rgb(29,35,38);fill-rule:nonzero;"/>
        </g>
        <g transform="matrix(50,0,0,50,1663.86,779.536)">
            <path d="M0.432,-0.508C0.473,-0.481 0.497,-0.435 0.503,-0.37L0.364,-0.37C0.362,-0.388 0.357,-0.402 0.349,-0.413C0.334,-0.431 0.308,-0.441 0.271,-0.441C0.241,-0.441 0.219,-0.436 0.206,-0.427C0.193,-0.417 0.187,-0.406 0.187,-0.394C0.187,-0.378 0.194,-0.366 0.208,-0.359C0.221,-0.351 0.27,-0.339 0.353,-0.32C0.408,-0.307 0.449,-0.288 0.477,-0.261C0.504,-0.235 0.518,-0.201 0.518,-0.161C0.518,-0.108 0.498,-0.065 0.459,-0.032C0.42,0.001 0.359,0.018 0.277,0.018C0.194,0.018 0.132,0 0.092,-0.035C0.052,-0.07 0.032,-0.115 0.032,-0.17L0.173,-0.17C0.176,-0.145 0.183,-0.128 0.192,-0.117C0.21,-0.099 0.242,-0.089 0.288,-0.089C0.315,-0.089 0.337,-0.093 0.353,-0.102C0.369,-0.11 0.377,-0.122 0.377,-0.138C0.377,-0.154 0.371,-0.166 0.358,-0.174C0.345,-0.182 0.297,-0.196 0.213,-0.216C0.153,-0.231 0.11,-0.25 0.085,-0.272C0.061,-0.294 0.048,-0.326 0.048,-0.368C0.048,-0.417 0.068,-0.459 0.106,-0.494C0.145,-0.53 0.199,-0.547 0.269,-0.547C0.335,-0.547 0.39,-0.534 0.432,-0.508Z" style="fill:rgb(29,35,38);fill-rule:nonzero;"/>
        </g>
        <g transform="matrix(50,0,0,50,1691.67,779.536)">
            <path d="M0.085,-0.475C0.122,-0.521 0.185,-0.545 0.274,-0.545C0.333,-0.545 0.384,-0.533 0.43,-0.51C0.475,-0.487 0.498,-0.444 0.498,-0.379L0.498,-0.135C0.498,-0.118 0.498,-0.098 0.499,-0.074C0.5,-0.056 0.502,-0.043 0.507,-0.037C0.511,-0.03 0.518,-0.025 0.527,-0.021L0.527,-0L0.376,-0C0.372,-0.011 0.369,-0.021 0.367,-0.03C0.366,-0.04 0.364,-0.05 0.363,-0.063C0.344,-0.042 0.322,-0.024 0.297,-0.009C0.267,0.008 0.233,0.017 0.195,0.017C0.147,0.017 0.107,0.003 0.076,-0.025C0.045,-0.052 0.029,-0.091 0.029,-0.142C0.029,-0.207 0.054,-0.254 0.104,-0.284C0.132,-0.3 0.173,-0.311 0.227,-0.318L0.274,-0.324C0.3,-0.327 0.318,-0.331 0.329,-0.336C0.349,-0.344 0.359,-0.358 0.359,-0.375C0.359,-0.397 0.351,-0.412 0.336,-0.421C0.321,-0.429 0.299,-0.433 0.27,-0.433C0.237,-0.433 0.213,-0.425 0.2,-0.409C0.19,-0.397 0.183,-0.38 0.18,-0.36L0.046,-0.36C0.049,-0.406 0.062,-0.445 0.085,-0.475ZM0.188,-0.101C0.201,-0.09 0.217,-0.084 0.236,-0.084C0.266,-0.084 0.294,-0.093 0.319,-0.111C0.344,-0.128 0.357,-0.16 0.358,-0.207L0.358,-0.259C0.35,-0.253 0.341,-0.249 0.332,-0.245C0.323,-0.242 0.311,-0.239 0.295,-0.236L0.264,-0.23C0.234,-0.225 0.213,-0.218 0.201,-0.211C0.179,-0.198 0.168,-0.179 0.168,-0.152C0.168,-0.128 0.175,-0.111 0.188,-0.101Z" style="fill:rgb(29,35,38);fill-rule:nonzero;"/>
        </g>
        <g transform="matrix(50,0,0,50,1719.48,779.536)">
            <path d="M0.511,-0.475C0.554,-0.429 0.575,-0.362 0.575,-0.273C0.575,-0.179 0.554,-0.108 0.512,-0.059C0.47,-0.009 0.416,0.015 0.349,0.015C0.307,0.015 0.272,0.005 0.244,-0.017C0.228,-0.028 0.213,-0.045 0.199,-0.068L0.199,0.209L0.061,0.209L0.061,-0.532L0.194,-0.532L0.194,-0.454C0.209,-0.477 0.225,-0.495 0.242,-0.508C0.273,-0.532 0.31,-0.544 0.353,-0.544C0.415,-0.544 0.467,-0.521 0.511,-0.475ZM0.432,-0.266C0.432,-0.307 0.422,-0.343 0.404,-0.375C0.385,-0.407 0.354,-0.422 0.313,-0.422C0.262,-0.422 0.227,-0.398 0.208,-0.351C0.199,-0.325 0.194,-0.293 0.194,-0.254C0.194,-0.192 0.21,-0.149 0.243,-0.124C0.263,-0.109 0.286,-0.102 0.313,-0.102C0.351,-0.102 0.381,-0.117 0.401,-0.146C0.421,-0.176 0.432,-0.216 0.432,-0.266Z" style="fill:rgb(29,35,38);fill-rule:nonzero;"/>
        </g>
        <g transform="matrix(50,0,0,50,1750.02,779.536)">
            <path d="M0.511,-0.475C0.554,-0.429 0.575,-0.362 0.575,-0.273C0.575,-0.179 0.554,-0.108 0.512,-0.059C0.47,-0.009 0.416,0.015 0.349,0.015C0.307,0.015 0.272,0.005 0.244,-0.017C0.228,-0.028 0.213,-0.045 0.199,-0.068L0.199,0.209L0.061,0.209L0.061,-0.532L0.194,-0.532L0.194,-0.454C0.209,-0.477 0.225,-0.495 0.242,-0.508C0.273,-0.532 0.31,-0.544 0.353,-0.544C0.415,-0.544 0.467,-0.521 0.511,-0.475ZM0.432,-0.266C0.432,-0.307 0.422,-0.343 0.404,-0.375C0.385,-0.407 0.354,-0.422 0.313,-0.422C0.262,-0.422 0.227,-0.398 0.208,-0.351C0.199,-0.325 0.194,-0.293 0.194,-0.254C0.194,-0.192 0.21,-0.149 0.243,-0.124C0.263,-0.109 0.286,-0.102 0.313,-0.102C0.351,-0.102 0.381,-0.117 0.401,-0.146C0.421,-0.176 0.432,-0.216 0.432,-0.266Z" style="fill:rgb(29,35,38);fill-rule:nonzero;"/>
        </g>
    </g>
    <g transform="matrix(0.778013,0,0,0.580055,-79.2737,231.755)">
        <path d="M1224.38,706.394L1224.38,1081.89C1224.38,1185.51 1161.66,1269.63 1084.4,1269.63L362.698,1269.63C285.442,1269.63 222.721,1185.51 222.721,1081.89L222.721,706.394C222.721,602.773 285.442,518.647 362.698,518.647L1084.4,518.647C1161.66,518.647 1224.38,602.773 1224.38,706.394Z" style="fill:rgb(75,140,173);"/>
    </g>
    <g transform="matrix(1.32705,0,0,1.33864,-258.748,-235.166)">
        <ellipse cx="888.687" cy="938.83" rx="52.83" ry="51.128" style="fill:rgb(75,140,173);"/>
    </g>
    <g transform="matrix(1.09615,0,0,1.06712,-62.4503,12.996)">
        <ellipse cx="1023.05" cy="1066.64" rx="46.13" ry="43.745" style="fill:rgb(75,140,173);"/>
    </g>
    <g transform="matrix(0.630965,0,0,0.642044,507.014,552.784)">
        <ellipse cx="1023.05" cy="1066.64" rx="46.13" ry="43.745" style="fill:rgb(75,140,173);"/>
    </g>
</svg>
